<svg xmlns:mydata="http://www.w3.org/2000/svg" mydata:contrastcolor="ffffff" mydata:template="BlackAndHighlightColorHex1" mydata:presentation="2.5" mydata:layouttype="undefined" mydata:specialfontid="undefined" mydata:id1="079" mydata:id2="784" mydata:companyname="anime view" mydata:companytagline="" version="1.1" xmlns="http://www.w3.org/2000/svg" xmlns:xlink="http://www.w3.org/1999/xlink" viewBox="0 35 550 400"><g fill="none" fill-rule="none" stroke="none" stroke-width="1" stroke-linecap="butt" stroke-linejoin="miter" stroke-miterlimit="10" stroke-dasharray="" stroke-dashoffset="0" font-family="none" font-weight="none" font-size="none" text-anchor="none" style="mix-blend-mode: normal"><g data-paper-data="{&quot;isGlobalGroup&quot;:true,&quot;bounds&quot;:{&quot;x&quot;:65,&quot;y&quot;:196.55492067144078,&quot;width&quot;:420,&quot;height&quot;:76.89010098950516}}"><g data-paper-data="{&quot;isPrimaryText&quot;:true}"><path d="M107.00071,265.42147h-12.56899l-8.43137,-31.38343l-8.43137,31.38343h-12.56899l14.59876,-54.64777h0.15614h12.49092h0.15614z" data-paper-data="{&quot;glyphName&quot;:&quot;A&quot;,&quot;glyphIndex&quot;:0,&quot;firstGlyphOfWord&quot;:true,&quot;word&quot;:1}" fill="#c1c6c8" fill-rule="nonzero"></path><path d="M110.12344,227.55837c0,-2.34205 0.44239,-4.52796 1.32716,-6.55773c0.88477,-2.02977 2.08182,-3.79932 3.59114,-5.30864c1.50932,-1.50932 3.27887,-2.70637 5.30864,-3.59114c2.02977,-0.88477 4.21568,-1.32716 6.55773,-1.32716h8.43137c2.34205,0 4.52796,0.44239 6.55773,1.32716c2.02977,0.88477 3.79932,2.08182 5.30864,3.59114c1.50932,1.50932 2.70637,3.27887 3.59114,5.30864c0.88477,2.02977 1.32716,4.21568 1.32716,6.55773v37.86309h-12.56899v-37.86309c0,-1.145 -0.40335,-2.13387 -1.21006,-2.96659c-0.80671,-0.83273 -1.80858,-1.24909 -3.00563,-1.24909h-8.43137c-1.19705,0 -2.19892,0.41636 -3.00563,1.24909c-0.80671,0.83273 -1.21006,1.82159 -1.21006,2.96659v37.86309h-12.56899z" data-paper-data="{&quot;glyphName&quot;:&quot;N&quot;,&quot;glyphIndex&quot;:1,&quot;word&quot;:1}" fill="#c1c6c8" fill-rule="nonzero"></path><path d="M155.24688,210.7737h12.56899v54.64777h-12.56899z" data-paper-data="{&quot;glyphName&quot;:&quot;I&quot;,&quot;glyphIndex&quot;:2,&quot;word&quot;:1}" fill="#c1c6c8" fill-rule="nonzero"></path><path d="M208.80169,210.7737c2.34205,0 4.52796,0.44239 6.55773,1.32716c2.02977,0.88477 3.79932,2.08182 5.30864,3.59114c1.50932,1.50932 2.70637,3.27887 3.59114,5.30864c0.88477,2.02977 1.32716,4.21568 1.32716,6.55773v37.86309h-12.56899v-37.86309c0,-1.145 -0.40335,-2.12085 -1.21006,-2.92756c-0.80671,-0.80671 -1.80858,-1.21006 -3.00563,-1.21006c-1.19705,0 -2.19892,0.40335 -3.00563,1.21006c-0.80671,0.80671 -1.21006,1.78256 -1.21006,2.92756v37.86309h-12.56899v-37.86309c0,-1.145 -0.40335,-2.12085 -1.21006,-2.92756c-0.80671,-0.80671 -1.80858,-1.21006 -3.00563,-1.21006c-1.19705,0 -2.19892,0.40335 -3.00563,1.21006c-0.80671,0.80671 -1.21006,1.78256 -1.21006,2.92756v37.86309h-12.64705v-37.86309c0,-2.34205 0.44239,-4.52796 1.32716,-6.55773c0.88477,-2.02977 2.09483,-3.79932 3.63017,-5.30864c1.53534,-1.50932 3.3179,-2.70637 5.34767,-3.59114c2.02977,-0.88477 4.21568,-1.32716 6.55773,-1.32716c1.97773,0 3.86438,0.32528 5.65995,0.97585c1.79557,0.65057 3.39597,1.54835 4.8012,2.69335c1.45727,-1.145 3.0837,-2.04279 4.87926,-2.69335c1.79557,-0.65057 3.68222,-0.97585 5.65995,-0.97585z" data-paper-data="{&quot;glyphName&quot;:&quot;M&quot;,&quot;glyphIndex&quot;:3,&quot;word&quot;:1}" fill="#c1c6c8" fill-rule="nonzero"></path><path d="M245.49376,223.42076c-1.19705,0 -2.19892,0.40335 -3.00563,1.21006c-0.80671,0.80671 -1.21006,1.78256 -1.21006,2.92756v4.21568h29.43173v12.64705h-29.43173v4.21568c0,1.145 0.40335,2.13387 1.21006,2.96659c0.80671,0.83273 1.80858,1.24909 3.00563,1.24909h25.21604v12.56899h-25.21604c-2.34205,0 -4.52796,-0.44239 -6.55773,-1.32716c-2.02977,-0.88477 -3.79932,-2.08182 -5.30864,-3.59114c-1.50932,-1.50932 -2.70637,-3.27887 -3.59114,-5.30864c-0.88477,-2.02977 -1.32716,-4.21568 -1.32716,-6.55773v-21.07842c0,-2.34205 0.44239,-4.52796 1.32716,-6.55773c0.88477,-2.02977 2.08182,-3.79932 3.59114,-5.30864c1.50932,-1.50932 3.27887,-2.70637 5.30864,-3.59114c2.02977,-0.88477 4.21568,-1.32716 6.55773,-1.32716h25.21604v12.64705z" data-paper-data="{&quot;glyphName&quot;:&quot;E&quot;,&quot;glyphIndex&quot;:4,&quot;lastGlyphOfWord&quot;:true,&quot;word&quot;:1}" fill="#c1c6c8" fill-rule="nonzero"></path><path d="M369.53708,210.7737h12.56899v54.64777h-12.56899z" data-paper-data="{&quot;glyphName&quot;:&quot;I&quot;,&quot;glyphIndex&quot;:6,&quot;word&quot;:2}" fill="#ffffff" fill-rule="nonzero"></path><path d="M402.01346,223.42076c-1.19705,0 -2.19892,0.40335 -3.00563,1.21006c-0.80671,0.80671 -1.21006,1.78256 -1.21006,2.92756v4.21568h29.43173v12.64705h-29.43173v4.21568c0,1.145 0.40335,2.13387 1.21006,2.96659c0.80671,0.83273 1.80858,1.24909 3.00563,1.24909h25.21604v12.56899h-25.21604c-2.34205,0 -4.52796,-0.44239 -6.55773,-1.32716c-2.02977,-0.88477 -3.79932,-2.08182 -5.30864,-3.59114c-1.50932,-1.50932 -2.70637,-3.27887 -3.59114,-5.30864c-0.88477,-2.02977 -1.32716,-4.21568 -1.32716,-6.55773v-21.07842c0,-2.34205 0.44239,-4.52796 1.32716,-6.55773c0.88477,-2.02977 2.08182,-3.79932 3.59114,-5.30864c1.50932,-1.50932 3.27887,-2.70637 5.30864,-3.59114c2.02977,-0.88477 4.21568,-1.32716 6.55773,-1.32716h25.21604v12.64705z" data-paper-data="{&quot;glyphName&quot;:&quot;E&quot;,&quot;glyphIndex&quot;:7,&quot;word&quot;:2}" fill="#ffffff" fill-rule="nonzero"></path><path d="M485,210.7737v37.86309c0,2.34205 -0.44239,4.52796 -1.32716,6.55773c-0.88477,2.02977 -2.08182,3.79932 -3.59114,5.30864c-1.50932,1.50932 -3.27887,2.70637 -5.30864,3.59114c-2.02977,0.88477 -4.21568,1.32716 -6.55773,1.32716c-1.97773,0 -3.86438,-0.32528 -5.65995,-0.97585c-1.79557,-0.65057 -3.42199,-1.54835 -4.87926,-2.69335c-1.40523,1.145 -3.00563,2.04279 -4.8012,2.69335c-1.79557,0.65057 -3.68222,0.97585 -5.65995,0.97585c-2.34205,0 -4.52796,-0.44239 -6.55773,-1.32716c-2.02977,-0.88477 -3.81233,-2.08182 -5.34767,-3.59114c-1.53534,-1.50932 -2.7454,-3.27887 -3.63017,-5.30864c-0.88477,-2.02977 -1.32716,-4.21568 -1.32716,-6.55773v-37.86309h12.64705v37.86309c0,1.145 0.40335,2.13387 1.21006,2.96659c0.80671,0.83273 1.80858,1.24909 3.00563,1.24909c1.19705,0 2.19892,-0.41636 3.00563,-1.24909c0.80671,-0.83273 1.21006,-1.82159 1.21006,-2.96659v-16.86274h12.56899v16.86274c0,1.145 0.40335,2.13387 1.21006,2.96659c0.80671,0.83273 1.80858,1.24909 3.00563,1.24909c1.19705,0 2.19892,-0.41636 3.00563,-1.24909c0.80671,-0.83273 1.21006,-1.82159 1.21006,-2.96659v-37.86309z" data-paper-data="{&quot;glyphName&quot;:&quot;W&quot;,&quot;glyphIndex&quot;:8,&quot;lastGlyphOfWord&quot;:true,&quot;word&quot;:2}" fill="#ffffff" fill-rule="nonzero"></path><g data-paper-data="{&quot;initialText&quot;:&quot;V&quot;,&quot;fillRule&quot;:&quot;nonzero&quot;,&quot;selectedEffects&quot;:{&quot;container&quot;:&quot;circle_simple_outline3&quot;,&quot;transformation&quot;:&quot;&quot;,&quot;pattern&quot;:&quot;&quot;},&quot;blockLetter&quot;:&quot;O&quot;,&quot;blockLetterId&quot;:0,&quot;relativeBoundsIconToContainer&quot;:{&quot;top&quot;:0.040285830571655475,&quot;left&quot;:9.732543225552714e-7},&quot;widthRatioIconToContainer&quot;:0.546243357697531,&quot;heightRatioIconToContainer&quot;:0.7107250971983305,&quot;bounds&quot;:{&quot;x&quot;:289.52424790766395,&quot;y&quot;:196.55492067144078,&quot;width&quot;:76.89010098950519,&quot;height&quot;:76.89010098950516},&quot;isIcon&quot;:&quot;true&quot;,&quot;iconType&quot;:&quot;initial&quot;,&quot;iconStyle&quot;:&quot;icon-in-text&quot;,&quot;rawInitialId&quot;:79,&quot;line&quot;:1,&quot;iconInPrimaryText&quot;:true,&quot;suitableAsStandaloneIcon&quot;:true}" fill-rule="evenodd"><g data-paper-data="{&quot;isPathIcon&quot;:true}"><path d="M313.00428,199.57692c-4.59901,1.945 -8.67301,4.69101 -12.21902,8.23801c-3.547,3.547 -6.29301,7.62001 -8.23901,12.22002c-2.01467,4.76267 -3.022,9.75101 -3.022,14.96502c0,5.21401 1.00733,10.20235 3.022,14.96502c1.946,4.60001 4.69201,8.67301 8.23901,12.22002c3.546,3.547 7.62001,6.29301 12.21902,8.23801c4.76301,2.015 9.75201,3.022 14.96502,3.022c5.21401,0 10.20201,-1.007 14.96502,-3.022c4.60001,-1.945 8.67301,-4.69101 12.22002,-8.23801c3.547,-3.547 6.29301,-7.62001 8.23901,-12.22002c2.014,-4.76301 3.021,-9.75101 3.021,-14.96502c0,-5.21401 -1.007,-10.20201 -3.021,-14.96502c-1.946,-4.60001 -4.69201,-8.67301 -8.23901,-12.22002c-3.547,-3.547 -7.62001,-6.29301 -12.22002,-8.23801c-4.76267,-2.01467 -9.75101,-3.022 -14.96502,-3.022c-5.21334,0 -10.20168,1.00733 -14.96502,3.022zM314.15628,267.70001c-4.24534,-1.796 -8.00534,-4.33134 -11.28001,-7.60601c-3.275,-3.275 -5.81101,-7.03501 -7.60601,-11.28101c-1.859,-4.39501 -2.788,-8.99901 -2.788,-13.81302c0,-4.81401 0.929,-9.41801 2.788,-13.81302c1.79534,-4.24534 4.33067,-8.00568 7.60601,-11.28101c3.275,-3.275 7.03501,-5.81001 11.28001,-7.60601c4.39501,-1.858 8.99901,-2.788 13.81302,-2.788c4.81401,0 9.41901,0.93 13.81302,2.788c4.24601,1.796 8.00601,4.33101 11.28101,7.60601c3.275,3.275 5.81001,7.03601 7.60601,11.28101c1.859,4.39501 2.788,8.99901 2.788,13.81302c0,4.81401 -0.929,9.41801 -2.788,13.81302c-1.796,4.24601 -4.33101,8.00601 -7.60601,11.28101c-3.27467,3.27467 -7.03501,5.81001 -11.28101,7.60601c-4.39401,1.858 -8.99901,2.788 -13.81302,2.788c-4.81401,0 -9.41801,-0.93 -13.81302,-2.788z" fill="#c1c6c8"></path><path d="M327.9693,242.15698l8.43201,-31.38304h12.56902l-14.59902,54.64707h-12.80302l-14.59902,-54.64707h12.56902z" fill="#ffffff"></path></g></g></g></g></g></svg>