<svg width="420" height="77" viewBox="0 0 420 77" fill="none" xmlns="http://www.w3.org/2000/svg">
<path d="M42.0007 68.8665H29.4317L21.0004 37.4831L12.569 68.8665H0L14.5988 14.2188H14.7549H27.2458H27.402L42.0007 68.8665Z" fill="#C1C6C8"/>
<path d="M45.1236 31.0034C45.1236 28.6614 45.5659 26.4755 46.4507 24.4457C47.3355 22.4159 48.5325 20.6464 50.0419 19.1371C51.5512 17.6277 53.3207 16.4307 55.3505 15.5459C57.3803 14.6611 59.5662 14.2188 61.9082 14.2188H70.3396C72.6816 14.2188 74.8676 14.6611 76.8973 15.5459C78.9271 16.4307 80.6967 17.6277 82.206 19.1371C83.7153 20.6464 84.9123 22.4159 85.7971 24.4457C86.6819 26.4755 87.1243 28.6614 87.1243 31.0034V68.8665H74.5553V31.0034C74.5553 29.8584 74.1519 28.8696 73.3452 28.0368C72.5385 27.2041 71.5366 26.7878 70.3396 26.7878H61.9082C60.7112 26.7878 59.7093 27.2041 58.9026 28.0368C58.0959 28.8696 57.6925 29.8584 57.6925 31.0034V68.8665H45.1235L45.1236 31.0034Z" fill="#C1C6C8"/>
<path d="M90.2468 14.2188H102.816V68.8665H90.2468V14.2188Z" fill="#C1C6C8"/>
<path d="M143.802 14.2188C146.144 14.2188 148.33 14.6611 150.359 15.5459C152.389 16.4307 154.159 17.6277 155.668 19.1371C157.177 20.6464 158.374 22.4159 159.259 24.4457C160.144 26.4755 160.586 28.6614 160.586 31.0034V68.8665H148.017V31.0034C148.017 29.8584 147.614 28.8826 146.807 28.0759C146.001 27.2692 144.999 26.8658 143.802 26.8658C142.605 26.8658 141.603 27.2692 140.796 28.0759C139.989 28.8826 139.586 29.8584 139.586 31.0034V68.8665H127.017V31.0034C127.017 29.8584 126.614 28.8826 125.807 28.0759C125 27.2692 123.998 26.8658 122.801 26.8658C121.604 26.8658 120.602 27.2692 119.796 28.0759C118.989 28.8826 118.586 29.8584 118.586 31.0034V68.8665H105.938V31.0034C105.938 28.6614 106.381 26.4755 107.266 24.4457C108.15 22.4159 109.36 20.6464 110.896 19.1371C112.431 17.6277 114.214 16.4307 116.243 15.5459C118.273 14.6611 120.459 14.2188 122.801 14.2188C124.779 14.2188 126.666 14.544 128.461 15.1946C130.257 15.8452 131.857 16.743 133.262 17.888C134.72 16.743 136.346 15.8452 138.142 15.1946C139.937 14.544 141.824 14.2188 143.802 14.2188Z" fill="#C1C6C8"/>
<path d="M180.494 26.8658C179.297 26.8658 178.295 27.2692 177.488 28.0759C176.681 28.8826 176.278 29.8584 176.278 31.0034V35.2191H205.71V47.8662H176.278V52.0818C176.278 53.2268 176.681 54.2157 177.488 55.0484C178.295 55.8812 179.297 56.2975 180.494 56.2975H205.71V68.8665H180.494C178.152 68.8665 175.966 68.4241 173.936 67.5394C171.906 66.6546 170.137 65.4575 168.627 63.9482C167.118 62.4389 165.921 60.6693 165.036 58.6396C164.151 56.6098 163.709 54.4239 163.709 52.0818V31.0034C163.709 28.6614 164.151 26.4755 165.036 24.4457C165.921 22.4159 167.118 20.6464 168.627 19.1371C170.137 17.6277 171.906 16.4307 173.936 15.5459C175.966 14.6611 178.152 14.2188 180.494 14.2188H205.71V26.8658L180.494 26.8658Z" fill="#C1C6C8"/>
<path d="M304.537 14.2188H317.106V68.8665H304.537V14.2188Z" fill="white"/>
<path d="M337.013 26.8658C335.816 26.8658 334.815 27.2692 334.008 28.0759C333.201 28.8826 332.798 29.8584 332.798 31.0034V35.2191H362.229V47.8662H332.798V52.0818C332.798 53.2268 333.201 54.2157 334.008 55.0484C334.815 55.8812 335.816 56.2975 337.013 56.2975H362.229V68.8665H337.013C334.671 68.8665 332.485 68.4241 330.456 67.5394C328.426 66.6546 326.656 65.4575 325.147 63.9482C323.638 62.4389 322.441 60.6693 321.556 58.6396C320.671 56.6098 320.229 54.4239 320.229 52.0818V31.0034C320.229 28.6614 320.671 26.4755 321.556 24.4457C322.441 22.4159 323.638 20.6464 325.147 19.1371C326.656 17.6277 328.426 16.4307 330.456 15.5459C332.485 14.6611 334.671 14.2188 337.013 14.2188H362.229V26.8658L337.013 26.8658Z" fill="white"/>
<path d="M420 14.2188V52.0818C420 54.4239 419.558 56.6098 418.673 58.6396C417.788 60.6693 416.591 62.4389 415.082 63.9482C413.572 65.4575 411.803 66.6546 409.773 67.5394C407.743 68.4241 405.557 68.8665 403.215 68.8665C401.238 68.8665 399.351 68.5412 397.555 67.8907C395.76 67.2401 394.133 66.3423 392.676 65.1973C391.271 66.3423 389.671 67.2401 387.875 67.8907C386.079 68.5412 384.193 68.8665 382.215 68.8665C379.873 68.8665 377.687 68.4241 375.657 67.5394C373.628 66.6546 371.845 65.4575 370.31 63.9482C368.774 62.4389 367.564 60.6693 366.679 58.6396C365.795 56.6098 365.352 54.4239 365.352 52.0818V14.2188H377.999V52.0818C377.999 53.2268 378.403 54.2157 379.209 55.0484C380.016 55.8812 381.018 56.2975 382.215 56.2975C383.412 56.2975 384.414 55.8812 385.221 55.0484C386.027 54.2157 386.431 53.2268 386.431 52.0818V35.2191H399V52.0818C399 53.2268 399.403 54.2157 400.21 55.0484C401.016 55.8812 402.018 56.2975 403.215 56.2975C404.412 56.2975 405.414 55.8812 406.221 55.0484C407.028 54.2157 407.431 53.2268 407.431 52.0818V14.2188H420Z" fill="white"/>
<path fill-rule="evenodd" clip-rule="evenodd" d="M248.004 3.022C243.405 4.967 239.331 7.71301 235.785 11.26C232.238 14.807 229.492 18.88 227.546 23.48C225.532 28.2427 224.524 33.231 224.524 38.4451C224.524 43.6591 225.532 48.6474 227.546 53.4101C229.492 58.0101 232.238 62.0831 235.785 65.6301C239.331 69.1771 243.405 71.9231 248.004 73.8681C252.767 75.8831 257.756 76.8901 262.969 76.8901C268.183 76.8901 273.171 75.8831 277.934 73.8681C282.534 71.9231 286.607 69.1771 290.154 65.6301C293.701 62.0831 296.447 58.0101 298.393 53.4101C300.407 48.6471 301.414 43.6591 301.414 38.4451C301.414 33.231 300.407 28.243 298.393 23.48C296.447 18.88 293.701 14.807 290.154 11.26C286.607 7.71301 282.534 4.967 277.934 3.022C273.172 1.00733 268.183 0 262.969 0C257.756 0 252.768 1.00733 248.004 3.022ZM249.156 71.1451C244.911 69.3491 241.151 66.8137 237.876 63.5391C234.601 60.2641 232.065 56.5041 230.27 52.2581C228.411 47.8631 227.482 43.2591 227.482 38.4451C227.482 33.631 228.411 29.027 230.27 24.632C232.066 20.3867 234.601 16.6264 237.876 13.351C241.151 10.076 244.911 7.54101 249.156 5.74501C253.551 3.88701 258.155 2.95702 262.969 2.95702C267.783 2.95702 272.388 3.88701 276.782 5.74501C281.028 7.54101 284.788 10.076 288.063 13.351C291.338 16.626 293.873 20.387 295.669 24.632C297.528 29.027 298.457 33.631 298.457 38.4451C298.457 43.2591 297.528 47.8631 295.669 52.2581C293.873 56.5041 291.338 60.2641 288.063 63.5391C284.789 66.8137 281.028 69.3491 276.782 71.1451C272.388 73.0031 267.783 73.9331 262.969 73.9331C258.155 73.9331 253.551 73.0031 249.156 71.1451Z" fill="#C1C6C8"/>
<path fill-rule="evenodd" clip-rule="evenodd" d="M262.969 45.602L271.401 14.219H283.97L269.371 68.8661H256.568L241.969 14.219H254.538L262.969 45.602Z" fill="white"/>
</svg>
